<svg width="80" height="40" viewBox="0 0 80 40" fill="none" xmlns="http://www.w3.org/2000/svg">
<path d="M39.7354 19.0232C39.8592 19.0936 40.0006 19.1288 40.1068 19.1288C40.319 19.1288 40.4958 19.0232 40.6196 18.8118L41.0441 18.1425C41.0441 18.1425 41.0441 18.1425 41.0441 18.1249C41.1148 17.984 41.2563 17.8079 41.4508 17.6141C41.5923 17.4732 41.663 17.3147 41.663 17.1738C41.663 17.0153 41.5923 16.8744 41.4508 16.7335C41.1679 16.3636 40.8318 16.3636 40.5489 16.7335C40.3013 16.9448 39.9476 17.4028 39.5055 18.1425C39.364 18.3362 39.3109 18.5124 39.3463 18.6709C39.3817 18.7942 39.5232 18.9351 39.7354 19.0232Z" fill="#271939"/>
<path d="M79.5437 20.1856C79.2785 19.9214 78.9778 19.9214 78.7125 20.1856L78.0405 20.714C78.0228 20.714 78.0051 20.714 77.9874 20.7316C77.1563 21.4185 75.7768 22.3168 73.8492 23.4088C73.7784 23.0389 73.69 22.5986 73.5839 22.035L73.3717 20.9606C73.3894 20.943 73.4071 20.9078 73.3894 20.8901C73.3894 20.8725 73.3717 20.8373 73.3717 20.8197C73.637 20.5907 73.8846 20.3265 74.0968 20.0623C74.5035 19.5692 74.7511 19.1465 74.8395 18.7766C75.0518 18.3186 74.9987 17.8431 74.7157 17.3852C74.4505 16.9977 74.1321 16.8215 73.7431 16.8744C73.4071 16.8744 73.0711 17.0329 72.7881 17.3147C72.5405 17.6494 72.3283 18.0897 72.1691 18.6709C72.1691 18.6709 72.1691 18.6709 72.1691 18.6885C72.0807 19.3226 72.063 19.8334 72.1161 20.2032C72.1161 20.2209 72.1161 20.2561 72.1161 20.2737C71.727 20.6083 71.2141 21.031 70.6129 21.489L68.4376 23.1798C66.4215 24.448 65.1128 25.082 64.5823 25.082C64.5646 25.082 64.4055 25.0468 63.8219 24.5184L63.2206 23.8491L62.9376 23.5673C64.5646 23.356 65.8733 22.898 66.846 22.1759C67.8894 21.3305 68.2608 20.5379 67.9071 19.8158C67.7302 19.4107 67.2881 19.1641 66.5984 19.076H66.5807C66.3331 19.076 65.9617 19.1641 65.4489 19.3226C64.8829 19.5339 64.2286 19.8686 63.5566 20.3618C62.9022 20.7669 62.2479 21.2248 61.6112 21.7532C61.3637 21.9469 61.0984 22.1583 60.8508 22.3696C60.78 22.3696 60.727 22.3696 60.6563 22.3696C60.8331 21.9469 61.0453 21.5066 61.2575 21.0134C64.1579 18.4419 66.6514 15.9233 68.6852 13.5455C70.2061 11.6257 71.2495 10.0758 71.7801 8.94853C72.2752 7.97982 72.5228 7.06394 72.5228 6.25374C72.5228 5.77819 72.399 5.39071 72.1338 5.09128C71.8685 4.79186 71.4971 4.63335 71.0019 4.63335C70.3299 4.66857 69.5518 5.09128 68.7029 5.86626C68.0132 6.42987 67.4119 7.08155 66.9344 7.8213C66.0501 8.94853 65.0244 10.5337 63.9103 12.524C63.2913 13.6512 62.071 16.2403 60.2495 20.2385C60.2318 20.2561 60.1964 20.2737 60.1788 20.3089C59.7366 20.6964 59.0469 21.2424 58.1627 21.9117C57.137 22.6514 56.4296 23.1446 55.9874 23.4088C55.1916 23.9724 54.4135 24.4656 53.7061 24.9059C53.1932 25.1349 52.9456 25.1349 52.8395 25.082C52.7865 25.0644 52.6273 24.9764 52.6804 24.5536C52.7511 23.9196 52.9633 23.2679 53.2817 22.5986C53.2817 22.5986 53.2817 22.5986 53.2817 22.581C53.317 22.4753 53.3878 22.3344 53.4939 22.1759C53.6 22.0174 53.6707 21.8589 53.7061 21.7356C53.7415 21.6299 53.8122 21.4538 53.9183 21.2248C54.0244 20.9958 54.0952 20.8197 54.1305 20.6964C54.3074 20.1504 54.3251 19.7453 54.1836 19.4459C53.9183 19.0056 53.4408 18.8823 52.7688 19.0408C52.5566 19.076 52.1852 19.2345 51.6016 19.5339C50.8765 19.939 49.8508 20.6612 48.5775 21.7003C48.3829 21.8412 48.1 22.0526 47.7463 22.352C47.9231 21.7356 48.5598 20.2913 47.6402 20.0095C47.6225 20.0095 47.6048 20.0095 47.6048 19.9919C47.3749 19.9567 47.1804 20.0447 47.0035 20.2032C45.8894 21.2248 44.4746 22.0174 43.1482 22.7043C41.309 23.7787 40.0003 24.3247 39.2575 24.3247C39.1161 24.3247 38.9215 24.2718 38.9215 23.8139C38.9215 23.3031 39.0807 22.7571 39.2398 22.264C39.346 21.9469 39.4697 21.6299 39.5759 21.3129C39.682 21.031 39.8588 20.7845 39.9119 20.5027C40.071 19.7453 39.2398 19.5868 38.78 19.9919C38.1611 20.5203 37.3652 20.9078 36.6579 21.3305C35.7382 21.8765 34.8186 22.4401 33.899 22.9861C32.8733 23.6025 31.8299 24.219 30.8041 24.8355C30.2559 25.1701 29.7077 25.5224 29.1771 25.8746C28.7173 25.5752 28.1691 25.3638 27.5501 25.2758C26.436 25.1173 25.4987 24.994 24.6498 24.9411C22.7929 24.8002 20.989 24.8707 19.2736 25.1701C20.5823 24.4656 21.8202 23.7611 22.9874 23.0742C26.1353 21.2072 29.7607 18.8647 32.6964 15.8C34.1112 14.3205 35.1193 12.8762 35.7029 11.4848C36.5164 9.54737 36.481 7.73324 35.6144 6.11284C34.3411 3.71747 31.4939 2.81921 29.4778 2.34366C27.108 1.79765 24.5614 1.65675 21.9086 1.95617C21.891 1.85049 21.891 1.74481 21.8556 1.65675C21.8025 1.42778 21.7318 1.19881 21.6257 0.987455C21.4842 0.705647 21.3074 0.476679 21.0951 0.300549C20.8829 0.124419 20.6353 -0.016487 20.3877 -0.086939C19.309 -0.38636 18.2125 0.459066 17.9472 1.79765L17.8058 2.73114C15.8781 3.24192 13.8974 3.94644 11.899 4.8447C8.00832 6.606 4.24144 8.94853 0.722144 11.8018C0.297707 12.1541 0.156227 12.7177 0.386131 13.2109C0.580665 13.6336 0.987418 13.8978 1.46491 13.8978C1.53565 13.8978 1.60639 13.8978 1.67713 13.8802C3.55173 13.5455 5.01957 12.8234 5.09031 12.7882L5.19642 12.7353C5.24948 12.7001 5.28485 12.6296 5.24948 12.5768L4.7543 11.5905C4.71893 11.5376 4.64819 11.5024 4.59514 11.5376L4.48903 11.5905C4.47134 11.5905 3.44562 12.1013 2.08388 12.4359C5.37327 9.82918 8.8572 7.69801 12.4472 6.06C14.1803 5.26741 15.8958 4.63335 17.5758 4.17541V4.19302L17.3106 5.83103L14.9939 20.6083L14.7993 21.8236L14.481 23.8491L14.3041 25.0292L14.1096 26.2797C13.5967 26.5263 13.0662 26.7905 12.518 27.0371C11.4215 27.4598 10.3604 27.9706 9.33469 28.4637C8.69803 28.7632 8.02601 29.0802 7.37167 29.3796L7.26556 29.4325C7.23019 29.4501 7.2125 29.4677 7.19482 29.5029C7.17713 29.5381 7.17713 29.5734 7.19482 29.591L7.63694 30.5949C7.67231 30.6477 7.72536 30.683 7.7961 30.6477L7.90221 30.5949C9.88292 29.7143 11.5099 28.9745 13.0308 28.27C13.1723 28.2172 13.2961 28.1643 13.4376 28.1115C13.5614 28.0586 13.7029 28.0234 13.8267 27.9706L12.1996 38.3622C12.1466 38.6793 12.3058 38.9963 12.571 39.0668C12.7125 39.102 12.8363 39.0668 12.9601 38.9787C13.0662 38.9082 13.1369 38.785 13.1723 38.6264L15.9312 27.3013C17.116 26.949 18.2656 26.6848 19.3974 26.4911C21.0244 26.2093 22.7575 26.1212 24.5437 26.2621C25.3572 26.3326 26.2591 26.4382 27.3379 26.5968C27.5501 26.632 27.7447 26.6848 27.9392 26.7377C27.1787 27.3013 26.4537 27.8297 25.764 28.3757C23.8717 29.8375 21.6787 31.5812 19.7511 33.5891C18.1948 35.1919 16.4086 37.3759 16.7093 38.7321C16.78 39.0668 16.9922 39.5071 17.6112 39.7537C17.8234 39.8417 18.0533 39.877 18.3186 39.877C18.5308 39.877 18.7254 39.8593 18.8668 39.8241C20.7591 39.5423 22.7575 38.8202 24.6321 37.7282C27.2495 36.2135 29.1418 34.0823 30.1498 31.5636C30.8395 29.8199 30.8572 28.0939 30.1675 26.9138C30.1498 26.8786 30.1321 26.861 30.1144 26.8433C30.5566 26.5439 31.0164 26.2445 31.4762 25.9803L37.9665 22.1054C37.9312 22.2111 37.8958 22.3344 37.8604 22.4753C37.6128 23.5673 37.6659 24.4127 37.9842 24.9411C38.1964 25.2758 38.5855 25.5048 39.1337 25.5752C39.1868 25.5752 39.2398 25.5928 39.3106 25.5928C39.9296 25.5928 41.0083 25.2053 42.5646 24.4304C44.0855 23.6554 45.4296 22.8628 46.5791 22.0526L46.4376 22.5986L45.8363 24.219C45.7656 24.4127 45.7656 24.6946 46.1016 24.9059C46.3669 25.082 46.6321 25.0644 46.862 24.8355C47.0919 24.5536 47.3395 24.3247 47.5871 24.1133L48.6128 23.2151L49.5855 22.4225C50.4167 21.718 51.2656 21.1191 52.1144 20.6788C52.6273 20.3618 52.8926 20.2385 53.0341 20.1856C52.8926 20.5555 52.6273 21.1367 52.2382 21.9117C51.7608 22.9685 51.5132 23.8491 51.5132 24.536C51.5132 25.4167 51.7961 25.9803 52.3444 26.2269C52.5212 26.2973 52.698 26.3326 52.8749 26.3326C53.1048 26.3326 53.3524 26.2797 53.6177 26.1564C53.7061 26.1212 54.1128 25.9275 54.7672 25.6104C55.9344 24.9764 57.0308 24.2366 58.0389 23.444C58.3572 23.2327 58.7463 22.9509 59.1884 22.6162C58.7993 23.4616 58.481 24.1133 58.2511 24.5713C58.145 24.6946 58.0919 24.8002 58.0743 24.9059C58.0389 25.0116 58.0212 25.1173 58.0566 25.2053C58.0919 25.311 58.1627 25.4167 58.2865 25.5048C58.2865 25.5048 58.3042 25.5047 58.3042 25.5224C58.6225 25.7513 58.9585 25.7513 59.2415 25.5224C59.6836 25.082 60.3556 24.5008 61.2222 23.7787L61.2399 23.7611C61.3283 23.7963 61.4344 23.8844 61.5582 23.9724C61.7173 24.1133 61.8411 24.2014 61.9296 24.2542C62.0887 24.4127 62.3186 24.6593 62.6016 24.994C62.9199 25.3462 63.1498 25.5928 63.309 25.7513C63.6981 26.1388 64.1048 26.3502 64.5293 26.3854C64.5293 26.3854 64.5292 26.3854 64.5469 26.3854C64.9183 26.3854 65.3074 26.315 65.6788 26.1917C66.2093 25.9803 66.9698 25.5928 67.9424 25.0292C69.428 24.1133 70.9312 23.0213 72.4344 21.7708C72.5051 22.1759 72.5936 22.6514 72.6997 23.1974C72.7704 23.5145 72.8235 23.7963 72.8765 24.0605C71.7093 24.8531 71.0727 25.3286 70.9135 25.4695C70.5952 25.7161 70.2591 26.086 69.9408 26.5615C69.6932 26.8433 69.481 27.2837 69.3219 27.8473C69.3219 27.8473 69.3219 27.8473 69.3219 27.8649C69.2334 28.6046 69.428 29.1859 69.8701 29.5557C70.1707 29.8199 70.5421 29.9432 70.9842 29.9432C71.1788 29.9432 71.3733 29.9256 71.6032 29.8728C72.063 29.7495 72.5051 29.5029 72.9649 29.133C73.2833 28.816 73.6016 28.3933 73.8846 27.9177C74.0791 27.4774 74.2383 26.9666 74.309 26.3854C74.3444 26.0155 74.3267 25.54 74.2559 24.994C74.2559 24.9587 74.2383 24.8707 74.2029 24.6593C74.3444 24.5713 74.4505 24.5184 74.5212 24.4656L76.9971 23.0213C78.0051 22.3344 78.9071 21.6651 79.6675 21.031C79.809 20.9254 79.8974 20.8021 79.9151 20.6612C79.7913 20.5203 79.7206 20.3441 79.5437 20.1856ZM64.9891 20.8901C65.9617 20.4498 66.3508 20.3618 66.51 20.3618C66.5807 20.3618 66.6161 20.3794 66.6338 20.3794C66.6338 20.5203 66.51 20.7492 66.0148 21.1191C65.3958 21.577 64.4762 21.9469 63.2913 22.1759C63.2383 22.1759 63.1852 22.1759 63.1321 22.1935C63.9456 21.577 64.5646 21.1543 64.9891 20.8901ZM63.6981 15.5358C64.9006 13.07 66.1916 10.8331 67.5534 8.93092C68.3138 7.97982 69.0212 7.20484 69.6579 6.606C70.2415 6.18329 70.6836 5.97193 70.9665 5.97193C71.0373 5.97193 71.2141 5.97193 71.2141 6.34181C71.2141 7.08155 70.8074 8.10311 70.0292 9.40647C69.4633 10.2871 68.9328 11.0269 68.473 11.6257C68.473 11.6257 68.473 11.6433 68.4553 11.6433C68.4022 11.749 68.0839 12.1893 66.846 13.6688L65.0952 15.5358C64.3347 16.346 63.4682 17.209 62.5309 18.0721C62.9907 17.0153 63.3974 16.1699 63.6981 15.5358ZM18.5131 3.99928L18.9376 1.60391C19.026 1.07552 19.5389 0.705646 20.0871 0.793711C20.5646 0.881776 20.9006 1.28688 20.9006 1.76243C20.9006 1.81526 20.9006 1.8681 20.8829 1.93856L20.8652 2.02662C20.7061 2.04423 20.5469 2.07946 20.3877 2.09707C20.1755 2.1323 19.9279 2.18514 19.645 2.23798L19.5742 2.25559C19.5389 2.25559 19.5035 2.29082 19.4858 2.32604L19.4681 2.3965C19.3974 2.57262 19.4151 2.76637 19.4328 2.90727C19.4328 3.01295 19.4681 3.32998 19.7511 3.50611L19.7865 3.54134C19.8041 3.55895 19.8395 3.55895 19.8749 3.55895L19.9279 3.54134C20.1578 3.4885 20.3877 3.45328 20.6353 3.41805L20.4762 4.31631C20.3877 4.8447 19.8749 5.21457 19.3267 5.12651C18.7784 5.03844 18.4247 4.52767 18.5131 3.99928ZM16.7977 23.4088L17.1691 21.9117L17.5051 20.5027L17.7881 19.3402L21.6964 3.25953C24.2961 2.9425 26.7897 3.04818 29.1241 3.59418C31.0341 4.0345 33.3685 4.79186 34.3765 6.69407C35.5791 8.96614 34.6771 11.6962 31.6707 14.8313C28.8411 17.7726 25.3218 20.0447 22.2447 21.8765C20.4408 22.9509 18.5131 24.0076 16.4086 25.082L16.7977 23.4088ZM28.8058 31.0528C27.9215 33.2897 26.2061 35.1919 23.854 36.5481C22.1209 37.552 20.2993 38.2213 18.5662 38.4855C18.354 38.5208 18.1418 38.5384 18.0003 38.4855C17.9472 38.4679 17.9295 38.4503 17.9295 38.4503C17.9295 38.4503 17.9295 38.4503 17.9295 38.4327C17.9295 38.4151 17.9295 38.3799 17.9295 38.3446C17.9295 37.8162 18.7431 36.4424 20.6353 34.4874C22.5099 32.55 24.6675 30.8239 26.5067 29.3972C27.2672 28.7984 28.063 28.2172 28.9295 27.5831C29.3894 28.4285 29.3363 29.7143 28.8058 31.0528ZM72.3637 27.9001C71.9392 28.4813 71.4794 28.7632 70.9842 28.7632C70.4006 28.6575 70.4006 28.3933 70.3829 28.3052C70.4183 27.953 70.5244 27.6183 70.7013 27.2837C70.8781 26.949 71.1434 26.632 71.4971 26.3502C71.8508 26.0508 72.1691 25.8042 72.4344 25.628C72.5759 25.5224 72.7527 25.4167 72.9649 25.2934C73.018 26.3502 72.8235 27.2308 72.3637 27.9001ZM73.354 18.9879C73.3894 18.8294 73.4424 18.6885 73.5309 18.53C73.637 18.2658 73.69 18.1249 73.7431 18.0545C73.7431 18.0721 73.7431 18.1073 73.7431 18.1425C73.7431 18.4948 73.6016 18.8118 73.354 19.1112C73.3363 19.0584 73.3363 19.0232 73.354 18.9879Z" fill="#271939"/>
</svg>
